# xmcd
#
# Track frame offsets:
#	150
#	28404
#	41233
#	59088
#	89285
#	107251
#	127703
#	138713
#	156447
#	177377
#	199427
#	218711
#
# Disc length: 3362 seconds
#
# Revision: 1
# Processed by: cddbd v1.5.2PL0 Copyright (c) Steve Scherf et al.
# Submitted via: audiograbber 1.83.01
#
DISCID=b60d200c
DTITLE=Various Artist - White boys can play the blues 1
DYEAR=1900
DGENRE=Blues
TTITLE0=Alvin Lee - Long legs
TTITLE1=Jan Anderson - Man of the world
TTITLE2=Savoy Brown - Baby please
TTITLE3=Rory Galagher - Leavin Town Blues
TTITLE4=Peter Green - Nigel Watson - Traveling Riverside Blues
TTITLE5=Alex Conti - Drifting
TTITLE6=Linek - Railway Ride
TTITLE7=Foghat - Talk to me baby
TTITLE8=Foghat - Motel Shaker
TTITLE9=Clem Clempson - I've got news for you
TTITLE10=Foghat - I just want to make love to you
TTITLE11=Alvin Lee - The bluest blues
EXTD=
EXTT0=
EXTT1=
EXTT2=
EXTT3=
EXTT4=
EXTT5=
EXTT6=
EXTT7=
EXTT8=
EXTT9=
EXTT10=
EXTT11=
PLAYORDER=
